<svg xmlns="http://www.w3.org/2000/svg" viewBox="0 0 137 39" style="fill:#000"><path d="m69.84,13.61h-7.76l-3.09,6h13.94l-3.09-6Zm33.25-1.17l-3.02-5.86-3.02,5.87,3.02,5.86,3.02-5.87Zm22.64,18.12h-2.37l1.3-2.52h3.64l-.49-.95h-2.65l3.86-7.48h5.73l-.49-.95h-10.79l-3.13,6.08-6.26-12.16-3.1-6h-6.05l3.09,6,9.26,17.98h-4.85l-6.31-12.24-.99-1.91-3.02,5.87,4.27,8.29h-4.88l-2.3-4.46h-6.06l-.78-1.52h-5.93l-6.18-12-.16-.31h6.99l-.49-.95h-9.7l-.49-.95h2.71l-1.95-3.78h9.76l-.21-.41H13.24l.23.41h14.68l-1.46,2.82h-6.38l.49.95h5.4l-1.15,2.22-6.26,12.16-2.12-4.11H1.84l.49.95h8.79l4.64,9h6.07l9.28-17.99,3.1-6h4.88l-3.1,6-1.71,3.32-3.02,5.87,2.49,4.84h4.57l.49.95h-7.67l.49.95h3.1l1.06,2.06h12.69l2.81-5.45,2.81,5.45h7.23l1.3-2.53h1.73l.66-1.28h-4.04l.49-.95h6.49l.63-1.23h-11.53l-2.74-5.32,3.44-6.68,3.1-6h10.26l3.1,6,8.12,15.76h-4.74l.49.95h4.74l.65,1.27h-14.5l-.23.41h37.87l3.09,6,1.04,2.02,3.02-5.87-1.11-2.15h24.12l.23-.41h-11.26Zm-80.22-6h-6.77l-1.45-2.81,4.74-9.19h2.78l3.44,6.68-2.74,5.32Zm6.18-12h-.83l-3.1-6h7.02l-3.1,6ZM13.65,3.1h.46c.75,0,1.24-.3,1.24-1.03v-.92c0-.74-.49-1.03-1.24-1.03h-1.28v4.87h.82v-1.88Zm0-2.27h.43c.27,0,.45.1.45.45v.67c0,.35-.18.45-.45.45h-.43V.83Zm4.58,2.22h.41l.62,1.94h.83l-.7-2.06c.34-.14.54-.44.54-.9v-.87c0-.74-.49-1.03-1.24-1.03h-1.28v4.87h.82v-1.94Zm0-2.22h.43c.27,0,.45.1.45.45v.64c0,.35-.18.45-.45.45h-.43V.83Zm5.12,4.22h.06c.75,0,1.24-.29,1.24-1.03V1.1c0-.74-.49-1.03-1.24-1.03h-.06c-.75,0-1.24.29-1.24,1.03v2.92c0,.74.49,1.03,1.24,1.03h0Zm-.43-3.83c0-.35.18-.45.45-.45s.45.1.45.45v2.67c0,.35-.18.45-.45.45s-.45-.1-.45-.45V1.22Zm5.38,2.74V.12h-.82v3.7c0,.35-.18.45-.45.45h-.3v.72h.31c.75,0,1.25-.28,1.25-1.03Zm4.83.32h-1.36v-1.41h1.12v-.71h-1.12V.83h1.34V.12h-2.16v4.87h2.18v-.71h0Zm3.76.76h.01c.75,0,1.24-.28,1.24-1.03v-1.01h-.82v.88c0,.34-.17.45-.43.45s-.43-.1-.43-.45V1.22c0-.34.17-.45.43-.45s.43.1.43.45v.77h.82v-.89c0-.72-.49-1.03-1.24-1.03h-.01c-.75,0-1.24.3-1.24,1.03v2.92c0,.76.49,1.03,1.24,1.03h0Zm4.41-.06h.82V.83h.83V.12h-2.46v.71h.83v4.16h0Zm11.43-2.98l.74,2.27h.46l.74-2.27v2.98h.79V.12h-.8l-.96,2.83-.95-2.83h-.78v4.87h.76v-2.98Zm6.57,3.41h1.65v-.43h-1.7c-.39,0-.68-.14-.68-.53V1.03c0-.39.29-.53.68-.53h1.41c.39,0,.68.14.68.53v2.35c0,.3-.11.53-.29.53-.12,0-.21-.09-.21-.27V1.3h-.38l-.14.28c-.05-.17-.28-.32-.55-.32h-.01c-.33,0-.7.22-.7.71v1.71c0,.52.36.71.69.71h.01c.28,0,.58-.14.62-.32.04.11.2.28.56.28.49,0,.86-.3.86-1.03V1.1c0-.74-.49-1.03-1.24-1.03h-1.23c-.75,0-1.24.3-1.24,1.03v3.3c0,.74.45,1.03,1.2,1.03h0Zm.95-1.88c0,.24-.12.3-.3.3s-.3-.07-.3-.3v-1.46c0-.24.12-.3.3-.3s.3.07.3.3v1.46Zm5.32,1.49h.01c.75,0,1.22-.27,1.22-1.02v-.7c0-.52-.28-.74-.75-1l-.58-.32c-.23-.13-.32-.25-.32-.49v-.33c0-.3.17-.42.41-.42s.41.11.41.42v.68h.8v-.79c0-.72-.54-1-1.21-1h-.01c-.67,0-1.21.28-1.21,1v.64c0,.51.28.73.75,1l.57.32c.25.13.33.26.33.51v.38c0,.3-.17.43-.42.43s-.42-.13-.42-.43v-.74h-.8v.85c0,.76.47,1.02,1.22,1.02h0ZM10.13,19.66h6.05l-3.65-7.09-3.1-6.01h-2.69L3.36,0H0l6.48,12.57,3.65,7.09Zm122.5-7.09l3.1-6h-6.05l-3.1,6-2.64,5.13h6.05l2.64-5.13Zm-56.8,19.68h-.03c-.1,0-.18.08-.18.18v.45c0,.1.08.18.18.18h.03c.1,0,.18-.08.18-.18v-.45c0-.1-.08-.18-.18-.18Zm0,1.02h-1.1c-.1,0-.18-.08-.18-.18v-.38c0-.1-.08-.18-.18-.18h-.4c-.1,0-.18.08-.18.18v.38c0,.1-.08.18-.18.18h-1.04c-.1,0-.18.08-.18.18v2.06c0,.1.08.18.18.18h.51c.1,0,.18-.08.18-.18v-1.22c0-.1.08-.18.18-.18h1.68v.03c0,.43-.06.77-.17,1.05-.11.27-.27.5-.47.66-.2.17-.41.29-.62.38-.2.08-.38.14-.51.16-.02,0-.05,0-.07.01-.09.01-.15.09-.15.18v.54c0,.08.07.14.15.14h.06c.13-.02.3-.06.52-.13.22-.07.44-.17.68-.3.24-.14.47-.31.69-.53.22-.22.41-.51.55-.87.14-.37.22-.79.22-1.28v-.71c0-.1-.08-.18-.18-.18h0Zm-.61-.23c.1,0,.18-.08.18-.18v-.45c0-.1-.08-.18-.18-.18h-.03c-.1,0-.18.08-.18.18v.45c0,.1.08.18.18.18h.03Zm6.12-.42h-.62c-.07,0-.12.04-.15.09-.25.43-.53.78-.83,1.07-.32.31-.62.56-.92.74-.3.18-.54.3-.72.38-.07.03-.13.05-.18.07-.07.03-.12.09-.12.17v.53c0,.12.12.21.24.17.16-.06.38-.15.65-.29.18-.09.36-.21.56-.34.12-.09.29,0,.29.14v1.74c0,.1.08.18.18.18h.54c.1,0,.18-.08.18-.18v-2.72s.01-.09.04-.12c.18-.2.38-.44.59-.71.17-.21.31-.43.44-.66.07-.12-.02-.27-.16-.27h0Zm3.73,1.45h-.5c-.1,0-.18.08-.18.18v.34c0,.4-.07.71-.17.95-.11.23-.24.4-.38.51-.14.11-.28.18-.39.22-.02,0-.04,0-.05.01-.08.02-.14.09-.14.17v.58c0,.12.12.21.24.17.17-.06.31-.12.44-.19.2-.1.38-.25.57-.45.19-.19.36-.45.51-.77.15-.32.22-.71.22-1.16v-.38c0-.1-.08-.18-.18-.18h.01Zm1.86-1.41h-3.49c-.1,0-.18.08-.18.18v.51c0,.1.08.18.18.18h2.52c.12,0,.21.12.17.22-.06.19-.12.35-.21.47-.12.16-.22.27-.31.33-.02.01-.04.03-.06.04-.05.04-.09.09-.09.15v.63c0,.08.07.14.15.14.02,0,.04,0,.07-.01,0,0,.01,0,.01,0,.11-.06.24-.14.41-.26.19-.13.38-.35.58-.64.2-.29.34-.64.43-1.05v-.71c0-.1-.08-.18-.18-.18h.01Zm5.44,1.41h-3.33c-.1,0-.18.08-.18.18v.48c0,.1.08.18.18.18h2.19c.13,0,.22.14.17.26-.07.14-.14.26-.24.37-.15.17-.33.3-.54.4-.2.1-.4.17-.58.22-.19.05-.34.08-.46.09h-.06.02c-.08,0-.15.06-.15.14h0v.58c0,.11.09.19.2.18h.03c.14-.02.34-.06.58-.11.24-.06.49-.14.76-.27.27-.12.53-.3.79-.53.26-.23.46-.53.6-.89.12-.32.19-.68.21-1.1,0-.1-.08-.18-.18-.18h-.02Zm-3.17-.53h2.92c.1,0,.18-.08.18-.18v-.48c0-.1-.08-.18-.18-.18h-2.92c-.1,0-.18.08-.18.18v.48c0,.1.08.18.18.18Zm8.68-.92h-.62c-.07,0-.12.04-.15.09-.25.43-.54.78-.83,1.07-.32.31-.62.56-.92.74-.3.18-.54.3-.72.38-.07.03-.13.05-.17.07-.07.03-.12.09-.12.17v.53c0,.12.12.21.24.17.16-.06.38-.15.65-.29.18-.09.36-.21.56-.34.12-.09.29,0,.29.14v1.74c0,.1.08.18.18.18h.54c.1,0,.18-.08.18-.18v-2.72s.01-.09.04-.12c.18-.2.38-.44.59-.71.17-.21.31-.43.44-.66.07-.12-.02-.27-.16-.27h0Zm5.44-.4h-.03c-.1,0-.18.08-.18.18v.45c0,.1.08.18.18.18h.03c.1,0,.18-.08.18-.18v-.45c0-.1-.08-.18-.18-.18Zm0,1.02h-1.1c-.1,0-.18-.08-.18-.18v-.38c0-.1-.08-.18-.18-.18h-.4c-.1,0-.18.08-.18.18v.38c0,.1-.08.18-.18.18h-1.04c-.1,0-.18.08-.18.18v2.06c0,.1.08.18.18.18h.51c.1,0,.18-.08.18-.18v-1.22c0-.1.08-.18.18-.18h1.68v.03c0,.43-.06.77-.17,1.05-.11.27-.27.5-.47.66-.2.17-.41.29-.62.38-.2.08-.38.14-.51.16-.02,0-.05,0-.07.01-.09.01-.15.09-.15.18v.53c0,.09.07.15.15.15h.06c.13-.02.31-.06.52-.13.22-.07.44-.17.68-.3.24-.14.47-.31.69-.53.22-.22.41-.51.55-.87.15-.37.22-.79.22-1.28v-.71c0-.1-.08-.18-.18-.18h0Zm-.61-.23c.1,0,.18-.08.18-.18v-.45c0-.1-.08-.18-.18-.18h-.03c-.1,0-.18.08-.18.18v.45c0,.1.08.18.18.18h.03ZM49.28.12l-.82.61v1l.82-.61V.12Zm0,2.01l-.82.61v2.25h.82v-2.87Z"></path></svg>